Comme-Heavy.ufo
<glyph name="ampersand" format="1">
  <advance width="1420"/>
  <unicode hex="0026"/>
  <outline>
    <contour>
      <point x="1182" y="-42" type="line"/>
      <point x="1395" y="123" type="line"/>
      <point x="756" y="861" type="line"/>
      <point x="918" y="946"/>
      <point x="1068" y="1118"/>
      <point x="1068" y="1245" type="curve" smooth="yes"/>
      <point x="1068" y="1484"/>
      <point x="825" y="1562"/>
      <point x="650" y="1557" type="curve" smooth="yes"/>
      <point x="466" y="1553"/>
      <point x="247" y="1444"/>
      <point x="247" y="1192" type="curve" smooth="yes"/>
      <point x="247" y="1052"/>
      <point x="387" y="908"/>
      <point x="408" y="889" type="curve"/>
      <point x="311" y="809"/>
      <point x="98" y="675"/>
      <point x="95" y="487" type="curve" smooth="yes"/>
      <point x="92" y="121"/>
      <point x="313" y="-15"/>
      <point x="630" y="-15" type="curve" smooth="yes"/>
      <point x="1050" y="-15"/>
      <point x="1253" y="338"/>
      <point x="1445" y="647" type="curve"/>
      <point x="1249" y="787" type="line"/>
      <point x="1107" y="521"/>
      <point x="892" y="220"/>
      <point x="628" y="220" type="curve" smooth="yes"/>
      <point x="490" y="220"/>
      <point x="374" y="299"/>
      <point x="397" y="485" type="curve" smooth="yes"/>
      <point x="413" y="581"/>
      <point x="580" y="706"/>
      <point x="553" y="692" type="curve"/>
    </contour>
    <contour>
      <point x="638" y="1015" type="curve"/>
      <point x="566" y="1099"/>
      <point x="550" y="1145"/>
      <point x="550" y="1234" type="curve" smooth="yes"/>
      <point x="550" y="1323"/>
      <point x="600" y="1338"/>
      <point x="659" y="1339" type="curve" smooth="yes"/>
      <point x="725" y="1339"/>
      <point x="784" y="1321"/>
      <point x="784" y="1240" type="curve" smooth="yes"/>
      <point x="784" y="1176"/>
      <point x="706" y="1049"/>
    </contour>
  </outline>
</glyph>
<glyph name="asterisk" format="1">
  <advance width="1077"/>
  <unicode hex="002A"/>
  <outline>
    <contour>
      <point x="377" y="443" type="line"/>
      <point x="541" y="775" type="line"/>
      <point x="710" y="440" type="line"/>
      <point x="692" y="430"/>
      <point x="981" y="596"/>
      <point x="962" y="585" type="curve"/>
      <point x="991" y="555"/>
      <point x="765" y="849"/>
      <point x="720" y="908" type="curve"/>
      <point x="1070" y="990" type="line"/>
      <point x="988" y="1271" type="line"/>
      <point x="648" y="1122" type="line"/>
      <point x="679" y="1539" type="line"/>
      <point x="401" y="1539" type="line"/>
      <point x="435" y="1122" type="line"/>
      <point x="97" y="1271" type="line"/>
      <point x="17" y="990" type="line"/>
      <point x="362" y="908" type="line"/>
      <point x="118" y="585" type="line"/>
    </contour>
  </outline>
</glyph>
<glyph name="three" format="1">
  <advance width="1219"/>
  <unicode hex="0033"/>
  <outline>
    <contour>
      <point x="539" y="-20" type="curve" smooth="yes"/>
      <point x="794" y="-20"/>
      <point x="1125" y="73"/>
      <point x="1122" y="432" type="curve" smooth="yes"/>
      <point x="1121" y="579"/>
      <point x="1011" y="793"/>
      <point x="589" y="750" type="curve"/>
      <point x="589" y="740" type="line"/>
      <point x="1031" y="721"/>
      <point x="1079" y="940"/>
      <point x="1079" y="1094" type="curve"/>
      <point x="1071" y="1377"/>
      <point x="827" y="1476"/>
      <point x="519" y="1476" type="curve"/>
      <point x="245" y="1476"/>
      <point x="116" y="1342"/>
      <point x="45" y="1274" type="curve"/>
      <point x="221" y="1071" type="line"/>
      <point x="242" y="1064" type="line"/>
      <point x="323" y="1131"/>
      <point x="399" y="1163"/>
      <point x="487" y="1168" type="curve"/>
      <point x="601" y="1168"/>
      <point x="659" y="1130"/>
      <point x="667" y="1029" type="curve"/>
      <point x="667" y="873"/>
      <point x="591" y="837"/>
      <point x="368" y="837" type="curve" smooth="yes"/>
      <point x="251" y="835" type="line"/>
      <point x="271" y="603" type="line"/>
      <point x="373" y="603" type="line" smooth="yes"/>
      <point x="556" y="603"/>
      <point x="683" y="588"/>
      <point x="680" y="439" type="curve" smooth="yes"/>
      <point x="679" y="352"/>
      <point x="635" y="282"/>
      <point x="501" y="282" type="curve" smooth="yes"/>
      <point x="348" y="282"/>
      <point x="256" y="361"/>
      <point x="209" y="398" type="curve"/>
      <point x="179" y="398" type="line"/>
      <point x="26" y="183" type="line"/>
      <point x="34" y="177"/>
      <point x="200" y="-20"/>
    </contour>
  </outline>
</glyph>
<glyph name="A" format="1">
  <advance width="1574"/>
  <unicode hex="0041"/>
  <outline>
    <contour>
      <point x="798" y="1456" type="move" name="top"/>
    </contour>
    <contour>
      <point x="1326" y="0" type="move" name="ogonek"/>
    </contour>
    <contour>
      <point x="796" y="0" type="move" name="bot"/>
    </contour>
    <contour>
      <point x="511" y="1456" type="line"/>
      <point x="50" y="0" type="line"/>
      <point x="490" y="0" type="line"/>
      <point x="603" y="386" type="line"/>
      <point x="514" y="335" type="line"/>
      <point x="1031" y="335" type="line"/>
      <point x="962" y="386" type="line"/>
      <point x="1084" y="0" type="line"/>
      <point x="1524" y="0" type="line"/>
      <point x="1072" y="1456" type="line"/>
    </contour>
    <contour>
      <point x="768" y="1208" type="line"/>
      <point x="918" y="549" type="line"/>
      <point x="944" y="594" type="line"/>
      <point x="607" y="594" type="line"/>
      <point x="653" y="544" type="line"/>
      <point x="813" y="1208" type="line"/>
    </contour>
  </outline>
</glyph>
<glyph name="B" format="1">
  <advance width="1465"/>
  <unicode hex="0042"/>
  <outline>
    <contour>
      <point x="712" y="1456" type="move" name="top"/>
    </contour>
    <contour>
      <point x="626" y="5" type="curve" smooth="yes"/>
      <point x="1269" y="5"/>
      <point x="1395" y="164"/>
      <point x="1395" y="434" type="curve" smooth="yes"/>
      <point x="1395" y="703"/>
      <point x="1239" y="780"/>
      <point x="884" y="802" type="curve"/>
      <point x="884" y="743" type="line"/>
      <point x="1163" y="765"/>
      <point x="1360" y="884"/>
      <point x="1360" y="1079" type="curve" smooth="yes"/>
      <point x="1360" y="1521"/>
      <point x="935" y="1468"/>
      <point x="622" y="1468" type="curve" smooth="yes"/>
      <point x="487" y="1468"/>
      <point x="331" y="1465"/>
      <point x="162" y="1460" type="curve"/>
      <point x="162" y="23" type="line"/>
      <point x="340" y="10"/>
      <point x="496" y="5"/>
    </contour>
    <contour>
      <point x="598" y="234" type="line"/>
      <point x="598" y="669" type="line"/>
      <point x="555" y="634" type="line"/>
      <point x="714" y="634" type="line" smooth="yes"/>
      <point x="871" y="634"/>
      <point x="960" y="630"/>
      <point x="960" y="471" type="curve" smooth="yes"/>
      <point x="960" y="292"/>
      <point x="850" y="280"/>
      <point x="661" y="280" type="curve" smooth="yes"/>
      <point x="590" y="280"/>
      <point x="510" y="287"/>
      <point x="479" y="293" type="curve"/>
    </contour>
    <contour>
      <point x="598" y="848" type="line"/>
      <point x="598" y="1245" type="line"/>
      <point x="509" y="1203" type="line"/>
      <point x="521" y="1205"/>
      <point x="594" y="1204"/>
      <point x="656" y="1204" type="curve" smooth="yes"/>
      <point x="821" y="1204"/>
      <point x="895" y="1194"/>
      <point x="895" y="1033" type="curve" smooth="yes"/>
      <point x="895" y="932"/>
      <point x="835" y="882"/>
      <point x="719" y="882" type="curve" smooth="yes"/>
      <point x="549" y="882" type="line"/>
    </contour>
  </outline>
</glyph>
<glyph name="D" format="1">
  <advance width="1571"/>
  <unicode hex="0044"/>
  <outline>
    <contour>
      <point x="831" y="1456" type="move" name="top"/>
    </contour>
    <contour>
      <point x="767" y="1" type="move" name="bot"/>
    </contour>
    <contour>
      <point x="405" y="741" type="move" name="mid"/>
    </contour>
    <contour>
      <point x="162" y="4" type="line"/>
      <point x="1187" y="-92"/>
      <point x="1466" y="243"/>
      <point x="1466" y="762" type="curve" smooth="yes"/>
      <point x="1466" y="1385"/>
      <point x="1106" y="1509"/>
      <point x="162" y="1460" type="curve"/>
    </contour>
    <contour>
      <point x="479" y="1175" type="line"/>
      <point x="1012" y="1221"/>
      <point x="1047" y="983"/>
      <point x="1047" y="757" type="curve" smooth="yes"/>
      <point x="1047" y="430"/>
      <point x="898" y="259"/>
      <point x="472" y="308" type="curve"/>
      <point x="598" y="200" type="line"/>
      <point x="598" y="1261" type="line"/>
    </contour>
  </outline>
</glyph>
<glyph name="G" format="1">
  <advance width="1629"/>
  <unicode hex="0047"/>
  <outline>
    <contour>
      <point x="848" y="1456" type="move" name="top"/>
    </contour>
    <contour>
      <point x="746" y="-1" type="move" name="bot"/>
    </contour>
    <contour>
      <point x="846" y="-20" type="curve" smooth="yes"/>
      <point x="1106" y="-20"/>
      <point x="1320" y="9"/>
      <point x="1481" y="87" type="curve"/>
      <point x="1481" y="838" type="line"/>
      <point x="839" y="838" type="line"/>
      <point x="830" y="566" type="line"/>
      <point x="1175" y="543" type="line"/>
      <point x="1128" y="601" type="line"/>
      <point x="1128" y="261" type="line"/>
      <point x="1193" y="343" type="line"/>
      <point x="1142" y="301"/>
      <point x="1045" y="268"/>
      <point x="915" y="268" type="curve" smooth="yes"/>
      <point x="762" y="268"/>
      <point x="573" y="326"/>
      <point x="573" y="724" type="curve" smooth="yes"/>
      <point x="573" y="1067"/>
      <point x="676" y="1185"/>
      <point x="884" y="1185" type="curve" smooth="yes"/>
      <point x="1051" y="1185"/>
      <point x="1110" y="1058"/>
      <point x="1156" y="937" type="curve"/>
      <point x="1186" y="937" type="line"/>
      <point x="1486" y="1076" type="line"/>
      <point x="1409" y="1307"/>
      <point x="1223" y="1476"/>
      <point x="841" y="1476" type="curve" smooth="yes"/>
      <point x="391" y="1476"/>
      <point x="105" y="1211"/>
      <point x="105" y="724" type="curve" smooth="yes"/>
      <point x="105" y="228"/>
      <point x="401" y="-20"/>
    </contour>
  </outline>
</glyph>
<glyph name="H" format="1">
  <advance width="1610"/>
  <unicode hex="0048"/>
  <outline>
    <contour>
      <point x="816" y="1456" type="move" name="top"/>
    </contour>
    <contour>
      <point x="1012" y="1456" type="line"/>
      <point x="1012" y="847" type="line"/>
      <point x="1068" y="885" type="line"/>
      <point x="545" y="885" type="line"/>
      <point x="597" y="833" type="line"/>
      <point x="597" y="1456" type="line"/>
      <point x="161" y="1456" type="line"/>
      <point x="161" y="-7" type="line"/>
      <point x="597" y="-7" type="line"/>
      <point x="597" y="650" type="line"/>
      <point x="540" y="605" type="line"/>
      <point x="1080" y="605" type="line"/>
      <point x="1012" y="650" type="line"/>
      <point x="1012" y="-7" type="line"/>
      <point x="1449" y="-7" type="line"/>
      <point x="1449" y="1456" type="line"/>
    </contour>
  </outline>
</glyph>
<glyph name="N" format="1">
  <advance width="1671"/>
  <unicode hex="004E"/>
  <outline>
    <contour>
      <point x="754" y="1456" type="move" name="top"/>
    </contour>
    <contour>
      <point x="780" y="0" type="move" name="bot"/>
    </contour>
    <contour>
      <point x="1100" y="1456" type="line"/>
      <point x="1100" y="973" type="line"/>
      <point x="1126" y="435" type="line"/>
      <point x="1232" y="430" type="line"/>
      <point x="570" y="1456" type="line"/>
      <point x="162" y="1456" type="line"/>
      <point x="162" y="0" type="line"/>
      <point x="582" y="0" type="line"/>
      <point x="582" y="467" type="line"/>
      <point x="557" y="961" type="line"/>
      <point x="456" y="967" type="line"/>
      <point x="1086" y="0" type="line"/>
      <point x="1509" y="0" type="line"/>
      <point x="1509" y="1456" type="line"/>
    </contour>
  </outline>
</glyph>
<glyph name="P" format="1">
  <advance width="1502"/>
  <unicode hex="0050"/>
  <outline>
    <contour>
      <point x="744" y="1456" type="move" name="top"/>
    </contour>
    <contour>
      <point x="162" y="1460" type="curve"/>
      <point x="162" y="0" type="line"/>
      <point x="598" y="0" type="line"/>
      <point x="598" y="495" type="line"/>
      <point x="527" y="459" type="line"/>
      <point x="1207" y="412"/>
      <point x="1440" y="605"/>
      <point x="1440" y="991" type="curve" smooth="yes"/>
      <point x="1440" y="1376"/>
      <point x="1176" y="1516"/>
    </contour>
    <contour>
      <point x="536" y="1197" type="line"/>
      <point x="974" y="1219"/>
      <point x="1021" y="1102"/>
      <point x="1021" y="969" type="curve" smooth="yes"/>
      <point x="1021" y="828"/>
      <point x="935" y="704"/>
      <point x="545" y="733" type="curve"/>
      <point x="598" y="681" type="line"/>
      <point x="598" y="1250" type="line"/>
    </contour>
  </outline>
</glyph>
<glyph name="R" format="1">
  <advance width="1540"/>
  <unicode hex="0052"/>
  <outline>
    <contour>
      <point x="772" y="1456" type="move" name="top"/>
    </contour>
    <contour>
      <point x="759" y="0" type="move" name="bot"/>
    </contour>
    <contour>
      <point x="162" y="0" type="line"/>
      <point x="598" y="0" type="line"/>
      <point x="598" y="627" type="line"/>
      <point x="550" y="589" type="line"/>
      <point x="769" y="589" type="line"/>
      <point x="694" y="626" type="line"/>
      <point x="1014" y="0" type="line"/>
      <point x="1490" y="0" type="line"/>
      <point x="1490" y="15" type="line"/>
      <point x="1116" y="708" type="line"/>
      <point x="1079" y="631" type="line"/>
      <point x="1195" y="661"/>
      <point x="1401" y="723"/>
      <point x="1401" y="1024" type="curve" smooth="yes"/>
      <point x="1403" y="1515"/>
      <point x="1069" y="1516"/>
      <point x="162" y="1460" type="curve"/>
    </contour>
    <contour>
      <point x="598" y="817" type="line"/>
      <point x="598" y="1228" type="line"/>
      <point x="557" y="1180" type="line"/>
      <point x="754" y="1193"/>
      <point x="1005" y="1245"/>
      <point x="1005" y="1033" type="curve" smooth="yes"/>
      <point x="1005" y="883"/>
      <point x="931" y="845"/>
      <point x="780" y="845" type="curve" smooth="yes"/>
      <point x="565" y="845" type="line"/>
    </contour>
  </outline>
</glyph>
<glyph name="V" format="1">
  <advance width="1361"/>
  <unicode hex="0056"/>
  <outline>
    <contour>
      <point x="407" y="-7" type="line"/>
      <point x="911" y="-7" type="line"/>
      <point x="1375" y="1456" type="line"/>
      <point x="961" y="1456" type="line"/>
      <point x="689" y="470" type="line"/>
      <point x="613" y="105" type="line"/>
      <point x="734" y="105" type="line"/>
      <point x="657" y="466" type="line"/>
      <point x="405" y="1456" type="line"/>
      <point x="-14" y="1456" type="line"/>
    </contour>
  </outline>
</glyph>
<glyph name="Y" format="1">
  <advance width="1343"/>
  <unicode hex="0059"/>
  <outline>
    <contour>
      <point x="676" y="1456" type="move" name="top"/>
    </contour>
    <contour>
      <point x="905" y="1456" type="line"/>
      <point x="634" y="934" type="line"/>
      <point x="701" y="934" type="line"/>
      <point x="442" y="1456" type="line"/>
      <point x="-23" y="1456" type="line"/>
      <point x="468" y="555" type="line"/>
      <point x="452" y="635" type="line"/>
      <point x="452" y="0" type="line"/>
      <point x="887" y="0" type="line"/>
      <point x="887" y="648" type="line"/>
      <point x="868" y="556" type="line"/>
      <point x="1366" y="1456" type="line"/>
    </contour>
  </outline>
</glyph>
<glyph name="a" format="1">
  <advance width="1157"/>
  <unicode hex="0061"/>
  <outline>
    <contour>
      <point x="543" y="1081" type="move" name="top"/>
    </contour>
    <contour>
      <point x="879" y="-1" type="move" name="ogonek"/>
    </contour>
    <contour>
      <point x="654" y="-1" type="move" name="bot"/>
    </contour>
    <contour>
      <point x="418" y="-15" type="curve" smooth="yes"/>
      <point x="628" y="-3"/>
      <point x="709" y="101"/>
      <point x="789" y="183" type="curve"/>
      <point x="696" y="185" type="line"/>
      <point x="756" y="0" type="line"/>
      <point x="1064" y="0" type="line"/>
      <point x="1064" y="612" type="line" smooth="yes"/>
      <point x="1064" y="958"/>
      <point x="853" y="1099"/>
      <point x="588" y="1099" type="curve" smooth="yes"/>
      <point x="437" y="1099"/>
      <point x="266" y="1053"/>
      <point x="98" y="975" type="curve"/>
      <point x="168" y="740" type="line"/>
      <point x="294" y="782"/>
      <point x="415" y="818"/>
      <point x="509" y="818" type="curve" smooth="yes"/>
      <point x="598" y="818"/>
      <point x="663" y="785"/>
      <point x="663" y="693" type="curve" smooth="yes"/>
      <point x="663" y="599" type="line"/>
      <point x="687" y="635" type="line"/>
      <point x="547" y="636" type="line" smooth="yes"/>
      <point x="357" y="637"/>
      <point x="58" y="582"/>
      <point x="58" y="308" type="curve" smooth="yes"/>
      <point x="58" y="84"/>
      <point x="209" y="-27"/>
    </contour>
    <contour>
      <point x="550" y="196" type="curve" smooth="yes"/>
      <point x="487" y="187"/>
      <point x="416" y="225"/>
      <point x="420" y="321" type="curve" smooth="yes"/>
      <point x="422" y="438"/>
      <point x="545" y="461"/>
      <point x="639" y="461" type="curve" smooth="yes"/>
      <point x="693" y="461" type="line"/>
      <point x="661" y="494" type="line"/>
      <point x="661" y="227" type="line"/>
      <point x="701" y="299" type="line"/>
      <point x="686" y="288"/>
      <point x="673" y="215"/>
    </contour>
  </outline>
</glyph>
<glyph name="b" format="1">
  <advance width="1286"/>
  <unicode hex="0062"/>
  <outline>
    <contour>
      <point x="809" y="1082" type="move" name="top"/>
    </contour>
    <contour>
      <point x="778" y="-20" type="curve" smooth="yes"/>
      <point x="1075" y="-20"/>
      <point x="1212" y="219"/>
      <point x="1212" y="551" type="curve" smooth="yes"/>
      <point x="1212" y="858"/>
      <point x="1070" y="1099"/>
      <point x="786" y="1101" type="curve" smooth="yes"/>
      <point x="512" y="1102"/>
      <point x="440" y="871"/>
      <point x="447" y="707" type="curve"/>
      <point x="501" y="709" type="line"/>
      <point x="525" y="1161" type="line"/>
      <point x="525" y="1560" type="line"/>
      <point x="117" y="1540" type="line"/>
      <point x="117" y="0" type="line"/>
      <point x="486" y="0" type="line"/>
      <point x="500" y="212" type="line"/>
      <point x="469" y="213" type="line"/>
      <point x="482" y="139"/>
      <point x="565" y="-20"/>
    </contour>
    <contour>
      <point x="673" y="236" type="curve" smooth="yes"/>
      <point x="574" y="236"/>
      <point x="550" y="273"/>
      <point x="526" y="302" type="curve"/>
      <point x="526" y="567" type="line" smooth="yes"/>
      <point x="526" y="814"/>
      <point x="623" y="844"/>
      <point x="685" y="844" type="curve" smooth="yes"/>
      <point x="739" y="844"/>
      <point x="801" y="810"/>
      <point x="801" y="552" type="curve" smooth="yes"/>
      <point x="801" y="305"/>
      <point x="727" y="236"/>
    </contour>
  </outline>
</glyph>
<glyph name="c" format="1">
  <advance width="1144"/>
  <unicode hex="0063"/>
  <outline>
    <contour>
      <point x="622" y="1082" type="move" name="top"/>
    </contour>
    <contour>
      <point x="635" y="0" type="move" name="bot"/>
    </contour>
    <contour>
      <point x="836" y="386" type="line"/>
      <point x="819" y="303"/>
      <point x="743" y="254"/>
      <point x="675" y="253" type="curve" smooth="yes"/>
      <point x="589" y="252"/>
      <point x="479" y="327"/>
      <point x="479" y="541" type="curve" smooth="yes"/>
      <point x="479" y="754"/>
      <point x="589" y="830"/>
      <point x="675" y="828" type="curve" smooth="yes"/>
      <point x="743" y="827"/>
      <point x="819" y="779"/>
      <point x="836" y="696" type="curve"/>
      <point x="848" y="696" type="line"/>
      <point x="1098" y="830" type="line"/>
      <point x="1006" y="1035"/>
      <point x="855" y="1101"/>
      <point x="655" y="1101" type="curve" smooth="yes"/>
      <point x="295" y="1101"/>
      <point x="69" y="887"/>
      <point x="69" y="541" type="curve" smooth="yes"/>
      <point x="69" y="195"/>
      <point x="295" y="-20"/>
      <point x="655" y="-20" type="curve" smooth="yes"/>
      <point x="855" y="-20"/>
      <point x="1006" y="47"/>
      <point x="1098" y="251" type="curve"/>
      <point x="848" y="386" type="line"/>
    </contour>
  </outline>
</glyph>
<glyph name="g" format="1">
  <advance width="1272"/>
  <unicode hex="0067"/>
  <outline>
    <contour>
      <point x="574" y="1082" type="move" name="top"/>
    </contour>
    <contour>
      <point x="591" y="-519" type="curve" smooth="yes"/>
      <point x="878" y="-519"/>
      <point x="1164" y="-381"/>
      <point x="1164" y="-32" type="curve" smooth="yes"/>
      <point x="1164" y="1089" type="line"/>
      <point x="756" y="1089" type="line"/>
      <point x="759" y="936" type="line"/>
      <point x="797" y="939" type="line"/>
      <point x="760" y="1003"/>
      <point x="686" y="1100"/>
      <point x="519" y="1101" type="curve" smooth="yes"/>
      <point x="329" y="1103"/>
      <point x="69" y="973"/>
      <point x="69" y="569" type="curve" smooth="yes"/>
      <point x="69" y="64"/>
      <point x="342" y="5"/>
      <point x="496" y="3" type="curve" smooth="yes"/>
      <point x="785" y="2"/>
      <point x="813" y="203"/>
      <point x="816" y="221" type="curve"/>
      <point x="766" y="236" type="line"/>
      <point x="790" y="26" type="line" smooth="yes"/>
      <point x="815" y="-182"/>
      <point x="686" y="-264"/>
      <point x="511" y="-265" type="curve" smooth="yes"/>
      <point x="431" y="-266"/>
      <point x="340" y="-250"/>
      <point x="242" y="-223" type="curve"/>
      <point x="211" y="-223" type="line"/>
      <point x="183" y="-476" type="line"/>
      <point x="310" y="-511"/>
      <point x="444" y="-519"/>
    </contour>
    <contour>
      <point x="621" y="236" type="curve" smooth="yes"/>
      <point x="544" y="236"/>
      <point x="481" y="321"/>
      <point x="481" y="567" type="curve" smooth="yes"/>
      <point x="481" y="838"/>
      <point x="589" y="844"/>
      <point x="628" y="844" type="curve" smooth="yes"/>
      <point x="705" y="844"/>
      <point x="721" y="821"/>
      <point x="758" y="789" type="curve"/>
      <point x="758" y="277" type="line"/>
      <point x="724" y="256"/>
      <point x="667" y="236"/>
    </contour>
  </outline>
</glyph>
<glyph name="k" format="1">
  <advance width="1254"/>
  <unicode hex="006B"/>
  <outline>
    <contour>
      <point x="680" y="0" type="move" name="bot"/>
    </contour>
    <contour>
      <point x="128" y="0" type="line"/>
      <point x="542" y="0" type="line"/>
      <point x="542" y="463" type="line"/>
      <point x="503" y="395" type="line"/>
      <point x="592" y="493" type="line"/>
      <point x="549" y="496" type="line"/>
      <point x="836" y="0" type="line"/>
      <point x="1245" y="0" type="line"/>
      <point x="1245" y="33" type="line"/>
      <point x="842" y="676" type="line"/>
      <point x="842" y="575" type="line"/>
      <point x="1236" y="1065" type="line"/>
      <point x="1236" y="1082" type="line"/>
      <point x="812" y="1082" type="line"/>
      <point x="505" y="709" type="line"/>
      <point x="535" y="700" type="line"/>
      <point x="542" y="862" type="line"/>
      <point x="542" y="1560" type="line"/>
      <point x="128" y="1540" type="line"/>
    </contour>
  </outline>
</glyph>
<glyph name="l" format="1">
  <advance width="809"/>
  <unicode hex="006C"/>
  <outline>
    <contour>
      <point x="311" y="1571" type="move" name="top"/>
    </contour>
    <contour>
      <point x="331" y="898" type="move" name="mid"/>
    </contour>
    <contour>
      <point x="677" y="-10" type="curve" smooth="yes"/>
      <point x="677" y="-10"/>
      <point x="781" y="-6"/>
      <point x="781" y="-6" type="curve"/>
      <point x="793" y="247" type="line"/>
      <point x="793" y="247"/>
      <point x="622" y="259"/>
      <point x="622" y="259" type="curve" smooth="yes"/>
      <point x="557" y="264"/>
      <point x="537" y="314"/>
      <point x="537" y="335" type="curve" smooth="yes"/>
      <point x="537" y="1560" type="line"/>
      <point x="123" y="1540" type="line"/>
      <point x="123" y="376" type="line" smooth="yes"/>
      <point x="123" y="88"/>
      <point x="266" y="-28"/>
    </contour>
  </outline>
</glyph>
<glyph name="q" format="1">
  <advance width="1277"/>
  <unicode hex="0071"/>
  <outline>
    <contour>
      <point x="764" y="-482" type="line"/>
      <point x="1170" y="-482" type="line"/>
      <point x="1170" y="1082" type="line"/>
      <point x="801" y="1082" type="line"/>
      <point x="784" y="695" type="line"/>
      <point x="833" y="694" type="line"/>
      <point x="838" y="879"/>
      <point x="758" y="1101"/>
      <point x="496" y="1101" type="curve" smooth="yes"/>
      <point x="209" y="1101"/>
      <point x="75" y="858"/>
      <point x="75" y="551" type="curve" smooth="yes"/>
      <point x="75" y="219"/>
      <point x="212" y="-20"/>
      <point x="506" y="-20" type="curve" smooth="yes"/>
      <point x="732" y="-20"/>
      <point x="807" y="149"/>
      <point x="817" y="212" type="curve"/>
      <point x="771" y="211" type="line"/>
      <point x="764" y="-60" type="line"/>
    </contour>
    <contour>
      <point x="626" y="236" type="curve" smooth="yes"/>
      <point x="573" y="236"/>
      <point x="485" y="259"/>
      <point x="485" y="551" type="curve" smooth="yes"/>
      <point x="485" y="807"/>
      <point x="555" y="844"/>
      <point x="610" y="844" type="curve" smooth="yes"/>
      <point x="679" y="844"/>
      <point x="735" y="808"/>
      <point x="761" y="755" type="curve"/>
      <point x="761" y="305" type="line"/>
      <point x="734" y="273"/>
      <point x="702" y="236"/>
    </contour>
  </outline>
</glyph>
<glyph name="s" format="1">
  <advance width="1022"/>
  <unicode hex="0073"/>
  <outline>
    <contour>
      <point x="478" y="1081" type="move" name="top"/>
    </contour>
    <contour>
      <point x="530" y="0" type="move" name="bot"/>
    </contour>
    <contour>
      <point x="231" y="377" type="line"/>
      <point x="46" y="205" type="line"/>
      <point x="167" y="49"/>
      <point x="324" y="-20"/>
      <point x="557" y="-20" type="curve" smooth="yes"/>
      <point x="789" y="-20"/>
      <point x="999" y="105"/>
      <point x="994" y="323" type="curve" smooth="yes"/>
      <point x="991" y="453"/>
      <point x="961" y="537"/>
      <point x="752" y="637" type="curve" smooth="yes"/>
      <point x="594" y="710" type="line" smooth="yes"/>
      <point x="527" y="744"/>
      <point x="520" y="772"/>
      <point x="524" y="793" type="curve" smooth="yes"/>
      <point x="529" y="817"/>
      <point x="561" y="831"/>
      <point x="587" y="832" type="curve" smooth="yes"/>
      <point x="639" y="832"/>
      <point x="728" y="810"/>
      <point x="791" y="732" type="curve"/>
      <point x="807" y="732" type="line"/>
      <point x="978" y="894" type="line"/>
      <point x="884" y="1056"/>
      <point x="704" y="1101"/>
      <point x="520" y="1101" type="curve" smooth="yes"/>
      <point x="261" y="1101"/>
      <point x="92" y="975"/>
      <point x="89" y="780" type="curve" smooth="yes"/>
      <point x="85" y="603"/>
      <point x="193" y="509"/>
      <point x="381" y="433" type="curve" smooth="yes"/>
      <point x="486" y="391" type="line" smooth="yes"/>
      <point x="577" y="354"/>
      <point x="602" y="328"/>
      <point x="602" y="302" type="curve" smooth="yes"/>
      <point x="601" y="280"/>
      <point x="590" y="243"/>
      <point x="533" y="243" type="curve" smooth="yes"/>
      <point x="462" y="243"/>
      <point x="358" y="258"/>
      <point x="265" y="377" type="curve"/>
    </contour>
  </outline>
</glyph>
<glyph name="u" format="1">
  <advance width="1280"/>
  <unicode hex="0075"/>
  <outline>
    <contour>
      <point x="638" y="1082" type="move" name="top"/>
    </contour>
    <contour>
      <point x="993" y="0" type="move" name="ogonek"/>
    </contour>
    <contour>
      <point x="660" y="0" type="move" name="bot"/>
    </contour>
    <contour>
      <point x="473" y="-20" type="curve" smooth="yes"/>
      <point x="685" y="-20"/>
      <point x="774" y="115"/>
      <point x="813" y="230" type="curve"/>
      <point x="779" y="248" type="line"/>
      <point x="808" y="0" type="line"/>
      <point x="1164" y="0" type="line"/>
      <point x="1164" y="1082" type="line"/>
      <point x="750" y="1082" type="line"/>
      <point x="750" y="241" type="line"/>
      <point x="769" y="336" type="line"/>
      <point x="740" y="287"/>
      <point x="695" y="238"/>
      <point x="629" y="238" type="curve" smooth="yes"/>
      <point x="561" y="238"/>
      <point x="521" y="277"/>
      <point x="521" y="468" type="curve" smooth="yes"/>
      <point x="521" y="1082" type="line"/>
      <point x="108" y="1082" type="line"/>
      <point x="108" y="410" type="line" smooth="yes"/>
      <point x="108" y="148"/>
      <point x="234" y="-20"/>
    </contour>
  </outline>
</glyph>
<glyph name="x" format="1">
  <advance width="1110"/>
  <unicode hex="0078"/>
  <outline>
    <contour>
      <point x="734" y="1082" type="line"/>
      <point x="494" y="710" type="line"/>
      <point x="395" y="613" type="line"/>
      <point x="-21" y="-7" type="line"/>
      <point x="363" y="-7" type="line"/>
      <point x="663" y="413" type="line"/>
      <point x="749" y="498" type="line"/>
      <point x="1110" y="1082" type="line"/>
    </contour>
    <contour>
      <point x="-4" y="1082" type="line"/>
      <point x="704" y="-7" type="line"/>
      <point x="1138" y="-7" type="line"/>
      <point x="424" y="1082" type="line"/>
    </contour>
  </outline>
</glyph>
<glyph name="yen" format="1">
  <advance width="1343"/>
  <unicode hex="00A5"/>
  <outline>
    <contour>
      <point x="162" y="234" type="line"/>
      <point x="1152" y="234" type="line"/>
      <point x="1152" y="385" type="line"/>
      <point x="162" y="385" type="line"/>
    </contour>
    <contour>
      <point x="162" y="541" type="line"/>
      <point x="1152" y="541" type="line"/>
      <point x="1152" y="692" type="line"/>
      <point x="162" y="692" type="line"/>
    </contour>
    <component base="Y"/>
  </outline>
</glyph>
<glyph name="section" format="1">
  <advance width="1008"/>
  <unicode hex="00A7"/>
  <outline>
    <contour>
      <point x="519" y="-20" type="curve" smooth="yes"/>
      <point x="740" y="-6"/>
      <point x="891" y="87"/>
      <point x="891" y="370" type="curve" smooth="yes"/>
      <point x="891" y="453"/>
      <point x="851" y="534"/>
      <point x="770" y="597" type="curve"/>
      <point x="834" y="649"/>
      <point x="894" y="713"/>
      <point x="902" y="805" type="curve" smooth="yes"/>
      <point x="914" y="923"/>
      <point x="866" y="1014"/>
      <point x="697" y="1095" type="curve" smooth="yes"/>
      <point x="476" y="1199"/>
      <point x="467" y="1225"/>
      <point x="467" y="1262" type="curve" smooth="yes"/>
      <point x="467" y="1304"/>
      <point x="520" y="1316"/>
      <point x="575" y="1316" type="curve" smooth="yes"/>
      <point x="649" y="1316"/>
      <point x="748" y="1294"/>
      <point x="815" y="1256" type="curve"/>
      <point x="882" y="1456" type="line"/>
      <point x="774" y="1532"/>
      <point x="636" y="1567"/>
      <point x="549" y="1567" type="curve" smooth="yes"/>
      <point x="403" y="1567"/>
      <point x="168" y="1531"/>
      <point x="146" y="1273" type="curve" smooth="yes"/>
      <point x="134" y="1133"/>
      <point x="198" y="1041"/>
      <point x="326" y="955" type="curve"/>
      <point x="239" y="891"/>
      <point x="162" y="813"/>
      <point x="162" y="720" type="curve" smooth="yes"/>
      <point x="162" y="589"/>
      <point x="266" y="535"/>
      <point x="429" y="457" type="curve" smooth="yes"/>
      <point x="579" y="382"/>
      <point x="596" y="353"/>
      <point x="588" y="303" type="curve" smooth="yes"/>
      <point x="582" y="275"/>
      <point x="564" y="247"/>
      <point x="525" y="238" type="curve" smooth="yes"/>
      <point x="410" y="218"/>
      <point x="220" y="293"/>
      <point x="166" y="331" type="curve"/>
      <point x="166" y="67" type="line"/>
      <point x="266" y="11"/>
      <point x="413" y="-27"/>
    </contour>
    <contour>
      <point x="640" y="668" type="curve"/>
      <point x="645" y="665"/>
      <point x="575" y="699"/>
      <point x="599" y="692" type="curve" smooth="yes"/>
      <point x="441" y="770"/>
      <point x="396" y="789"/>
      <point x="396" y="825" type="curve" smooth="yes"/>
      <point x="396" y="857"/>
      <point x="426" y="886"/>
      <point x="439" y="890" type="curve"/>
      <point x="437" y="891"/>
      <point x="547" y="847"/>
      <point x="588" y="821" type="curve" smooth="yes"/>
      <point x="650" y="783"/>
      <point x="673" y="746"/>
      <point x="672" y="719" type="curve" smooth="yes"/>
      <point x="672" y="700"/>
      <point x="658" y="683"/>
    </contour>
  </outline>
</glyph>
<glyph name="cedilla" format="1">
  <advance width="781"/>
  <unicode hex="00B8"/>
  <outline>
    <contour>
      <point x="549" y="26" type="move" name="_bot"/>
    </contour>
    <contour>
      <point x="477" y="-424" type="curve" smooth="yes"/>
      <point x="618" y="-424"/>
      <point x="733" y="-346"/>
      <point x="733" y="-208" type="curve" smooth="yes"/>
      <point x="733" y="-56"/>
      <point x="611" y="3"/>
      <point x="444" y="-60" type="curve"/>
      <point x="444" y="-138" type="line"/>
      <point x="514" y="-132"/>
      <point x="550" y="-149"/>
      <point x="551" y="-198" type="curve" smooth="yes"/>
      <point x="551" y="-244"/>
      <point x="502" y="-301"/>
      <point x="349" y="-254" type="curve"/>
      <point x="302" y="-387" type="line"/>
      <point x="362" y="-412"/>
      <point x="422" y="-424"/>
    </contour>
  </outline>
</glyph>
<glyph name="ordmasculine" format="1">
  <advance width="965"/>
  <unicode hex="00BA"/>
  <outline>
    <contour>
      <point x="95" y="1146" type="curve" smooth="yes"/>
      <point x="95" y="909"/>
      <point x="231" y="718"/>
      <point x="480" y="718" type="curve" smooth="yes"/>
      <point x="718" y="718"/>
      <point x="865" y="910"/>
      <point x="865" y="1146" type="curve" smooth="yes"/>
      <point x="865" y="1386"/>
      <point x="736" y="1575"/>
      <point x="480" y="1575" type="curve" smooth="yes"/>
      <point x="231" y="1575"/>
      <point x="95" y="1383"/>
    </contour>
    <contour>
      <point x="637" y="1143" type="curve" smooth="yes"/>
      <point x="637" y="987"/>
      <point x="586" y="923"/>
      <point x="480" y="923" type="curve" smooth="yes"/>
      <point x="383" y="923"/>
      <point x="330" y="988"/>
      <point x="330" y="1146" type="curve" smooth="yes"/>
      <point x="330" y="1307"/>
      <point x="384" y="1370"/>
      <point x="480" y="1370" type="curve" smooth="yes"/>
      <point x="580" y="1370"/>
      <point x="637" y="1303"/>
    </contour>
  </outline>
</glyph>
<glyph name="onequarter" format="1">
  <advance width="1563"/>
  <unicode hex="00BC"/>
  <outline>
    <contour>
      <point x="109" y="602" type="line"/>
      <point x="606" y="602" type="line"/>
      <point x="606" y="794" type="line"/>
      <point x="471" y="794" type="line"/>
      <point x="471" y="1516" type="line"/>
      <point x="301" y="1516" type="line"/>
      <point x="278" y="1511"/>
      <point x="148" y="1426"/>
      <point x="89" y="1398" type="curve"/>
      <point x="89" y="1208" type="line"/>
      <point x="82" y="1201"/>
      <point x="231" y="1267"/>
      <point x="268" y="1282" type="curve"/>
      <point x="268" y="794" type="line"/>
      <point x="109" y="794" type="line"/>
    </contour>
    <contour>
      <point x="1340" y="0" type="line"/>
      <point x="1527" y="0" type="line"/>
      <point x="1527" y="174" type="line"/>
      <point x="1616" y="174" type="line"/>
      <point x="1639" y="333" type="line"/>
      <point x="1526" y="333" type="line"/>
      <point x="1526" y="882" type="line"/>
      <point x="1330" y="882" type="line"/>
      <point x="986" y="345" type="line"/>
      <point x="986" y="174" type="line"/>
      <point x="1340" y="174" type="line"/>
    </contour>
    <contour>
      <point x="271" y="0" type="line"/>
      <point x="523" y="0" type="line"/>
      <point x="1543" y="1516" type="line"/>
      <point x="1301" y="1516" type="line"/>
    </contour>
    <contour>
      <point x="1194" y="333" type="line"/>
      <point x="1341" y="629" type="line"/>
      <point x="1341" y="333" type="line"/>
    </contour>
  </outline>
</glyph>
<glyph name="onehalf" format="1">
  <advance width="2020"/>
  <unicode hex="00BD"/>
  <outline>
    <contour>
      <point x="1322" y="0" type="line"/>
      <point x="1899" y="0" type="line"/>
      <point x="1905" y="163" type="line"/>
      <point x="1555" y="163" type="line"/>
      <point x="1745" y="324" type="line" smooth="yes"/>
      <point x="1870" y="429"/>
      <point x="1911" y="538"/>
      <point x="1911" y="605" type="curve" smooth="yes"/>
      <point x="1911" y="728"/>
      <point x="1851" y="889"/>
      <point x="1585" y="889" type="curve" smooth="yes"/>
      <point x="1418" y="889"/>
      <point x="1301" y="796"/>
      <point x="1233" y="718" type="curve"/>
      <point x="1348" y="595" type="line"/>
      <point x="1400" y="658"/>
      <point x="1495" y="708"/>
      <point x="1577" y="708" type="curve" smooth="yes"/>
      <point x="1638" y="708"/>
      <point x="1684" y="668"/>
      <point x="1683" y="611" type="curve" smooth="yes"/>
      <point x="1683" y="570"/>
      <point x="1652" y="512"/>
      <point x="1612" y="475" type="curve" smooth="yes"/>
      <point x="1612" y="475"/>
      <point x="1280" y="157"/>
      <point x="1280" y="157" type="curve"/>
    </contour>
    <contour>
      <point x="163" y="602" type="line"/>
      <point x="694" y="602" type="line"/>
      <point x="694" y="755" type="line"/>
      <point x="551" y="755" type="line"/>
      <point x="551" y="1518" type="line"/>
      <point x="380" y="1518" type="line"/>
      <point x="358" y="1511"/>
      <point x="213" y="1428"/>
      <point x="154" y="1398" type="curve"/>
      <point x="154" y="1243" type="line"/>
      <point x="151" y="1236"/>
      <point x="286" y="1302"/>
      <point x="323" y="1319" type="curve"/>
      <point x="323" y="755" type="line"/>
      <point x="163" y="755" type="line"/>
    </contour>
    <contour>
      <point x="408" y="0" type="line"/>
      <point x="637" y="0" type="line"/>
      <point x="1645" y="1518" type="line"/>
      <point x="1415" y="1518" type="line"/>
    </contour>
  </outline>
</glyph>
<glyph name="kgreenlandic" format="1">
  <advance width="1219"/>
  <unicode hex="0138"/>
  <outline>
    <contour>
      <point x="95" y="0" type="line"/>
      <point x="401" y="0" type="line"/>
      <point x="401" y="440" type="line"/>
      <point x="311" y="254" type="line"/>
      <point x="524" y="487" type="line"/>
      <point x="423" y="474" type="line"/>
      <point x="756" y="0" type="line"/>
      <point x="1112" y="0" type="line"/>
      <point x="1112" y="2" type="line"/>
      <point x="646" y="663" type="line"/>
      <point x="628" y="500" type="line"/>
      <point x="1092" y="1065" type="line"/>
      <point x="1092" y="1082" type="line"/>
      <point x="736" y="1082" type="line"/>
      <point x="343" y="584" type="line"/>
      <point x="394" y="604" type="line"/>
      <point x="401" y="864" type="line"/>
      <point x="401" y="1082" type="line"/>
      <point x="95" y="1082" type="line"/>
    </contour>
  </outline>
</glyph>
<glyph name="oe" format="1">
  <advance width="1824"/>
  <unicode hex="0153"/>
  <outline>
    <contour>
      <point x="1621" y="317" type="line"/>
      <point x="1604" y="278"/>
      <point x="1471" y="231"/>
      <point x="1366" y="229" type="curve" smooth="yes"/>
      <point x="1276" y="226"/>
      <point x="1124" y="238"/>
      <point x="1081" y="411" type="curve"/>
      <point x="1717" y="411" type="line"/>
      <point x="1717" y="411"/>
      <point x="1726" y="456"/>
      <point x="1725" y="562" type="curve" smooth="yes"/>
      <point x="1712" y="872"/>
      <point x="1581" y="1084"/>
      <point x="1285" y="1094" type="curve" smooth="yes"/>
      <point x="1143" y="1099"/>
      <point x="1004" y="1006"/>
      <point x="926" y="924" type="curve"/>
      <point x="851" y="1004"/>
      <point x="704" y="1094"/>
      <point x="562" y="1094" type="curve" smooth="yes"/>
      <point x="258" y="1094"/>
      <point x="48" y="877"/>
      <point x="48" y="544" type="curve" smooth="yes"/>
      <point x="48" y="204"/>
      <point x="255" y="-15"/>
      <point x="562" y="-15" type="curve" smooth="yes"/>
      <point x="703" y="-15"/>
      <point x="834" y="59"/>
      <point x="923" y="137" type="curve"/>
      <point x="1027" y="43"/>
      <point x="1188" y="-26"/>
      <point x="1372" y="-15" type="curve" smooth="yes"/>
      <point x="1545" y="-5"/>
      <point x="1677" y="56"/>
      <point x="1721" y="118" type="curve"/>
      <point x="1635" y="317" type="line"/>
    </contour>
    <contour>
      <point x="562" y="229" type="curve" smooth="yes"/>
      <point x="426" y="229"/>
      <point x="356" y="314"/>
      <point x="356" y="546" type="curve" smooth="yes"/>
      <point x="356" y="770"/>
      <point x="425" y="851"/>
      <point x="562" y="851" type="curve" smooth="yes"/>
      <point x="698" y="851"/>
      <point x="768" y="770"/>
      <point x="768" y="546" type="curve" smooth="yes"/>
      <point x="768" y="314"/>
      <point x="697" y="229"/>
    </contour>
    <contour>
      <point x="1087" y="612" type="line"/>
      <point x="1093" y="804"/>
      <point x="1202" y="861"/>
      <point x="1277" y="865" type="curve" smooth="yes"/>
      <point x="1368" y="870"/>
      <point x="1435" y="825"/>
      <point x="1450" y="612" type="curve"/>
    </contour>
  </outline>
</glyph>
<glyph name="trademark" format="1">
  <advance width="2005"/>
  <unicode hex="2122"/>
  <outline>
    <contour>
      <point x="885" y="521" type="line"/>
      <point x="1102" y="521" type="line"/>
      <point x="1124" y="1034" type="line"/>
      <point x="1343" y="588" type="line"/>
      <point x="1445" y="588" type="line"/>
      <point x="1665" y="1036" type="line"/>
      <point x="1687" y="521" type="line"/>
      <point x="1903" y="521" type="line"/>
      <point x="1882" y="1456" type="line"/>
      <point x="1656" y="1456" type="line"/>
      <point x="1395" y="904" type="line"/>
      <point x="1131" y="1456" type="line"/>
      <point x="906" y="1456" type="line"/>
    </contour>
    <contour>
      <point x="326" y="521" type="line"/>
      <point x="552" y="521" type="line"/>
      <point x="552" y="1284" type="line"/>
      <point x="790" y="1284" type="line"/>
      <point x="790" y="1456" type="line"/>
      <point x="87" y="1456" type="line"/>
      <point x="87" y="1284" type="line"/>
      <point x="326" y="1284" type="line"/>
    </contour>
  </outline>
</glyph>
<glyph name="partialdiff" format="1">
  <advance width="1444"/>
  <unicode hex="2202"/>
  <outline>
    <contour>
      <point x="585" y="-21" type="curve" smooth="yes"/>
      <point x="984" y="-21"/>
      <point x="1227" y="402"/>
      <point x="1227" y="938" type="curve" smooth="yes"/>
      <point x="1227" y="1448"/>
      <point x="740" y="1730"/>
      <point x="283" y="1451" type="curve"/>
      <point x="349" y="1282" type="line"/>
      <point x="643" y="1471"/>
      <point x="929" y="1320"/>
      <point x="923" y="984" type="curve"/>
      <point x="155" y="924"/>
      <point x="-41" y="-21"/>
    </contour>
    <contour>
      <point x="599" y="151" type="curve" smooth="yes"/>
      <point x="458" y="151"/>
      <point x="568" y="738"/>
      <point x="913" y="822" type="curve"/>
      <point x="888" y="542"/>
      <point x="775" y="151"/>
    </contour>
  </outline>
</glyph>
<glyph name="uni2206" format="1">
  <advance width="1347"/>
  <unicode hex="2206"/>
  <outline>
    <contour>
      <point x="581" y="1604" type="line"/>
      <point x="74" y="90" type="line"/>
      <point x="74" y="0" type="line"/>
      <point x="1281" y="0" type="line"/>
      <point x="1281" y="90" type="line"/>
      <point x="775" y="1604" type="line"/>
    </contour>
    <contour>
      <point x="709" y="1241" type="line"/>
      <point x="1074" y="180" type="line"/>
      <point x="281" y="180" type="line"/>
      <point x="639" y="1241" type="line"/>
      <point x="675" y="1366" type="line"/>
    </contour>
  </outline>
</glyph>
<glyph name="approxequal" format="1">
  <advance width="1344"/>
  <unicode hex="2248"/>
  <outline>
    <contour>
      <point x="886" y="938" type="curve" smooth="yes"/>
      <point x="831" y="938"/>
      <point x="773" y="965"/>
      <point x="706" y="1006" type="curve"/>
      <point x="592" y="1074"/>
      <point x="522" y="1109"/>
      <point x="418" y="1109" type="curve" smooth="yes"/>
      <point x="227" y="1109"/>
      <point x="124" y="987"/>
      <point x="96" y="791" type="curve"/>
      <point x="287" y="727" type="line"/>
      <point x="300" y="830"/>
      <point x="330" y="878"/>
      <point x="392" y="889" type="curve" smooth="yes"/>
      <point x="448" y="898"/>
      <point x="498" y="867"/>
      <point x="523" y="851" type="curve" smooth="yes"/>
      <point x="689" y="757"/>
      <point x="780" y="719"/>
      <point x="896" y="719" type="curve" smooth="yes"/>
      <point x="1112" y="719"/>
      <point x="1173" y="848"/>
      <point x="1209" y="1030" type="curve"/>
      <point x="1042" y="1095" type="line"/>
      <point x="995" y="960"/>
      <point x="940" y="938"/>
    </contour>
    <contour>
      <point x="886" y="487" type="curve" smooth="yes"/>
      <point x="831" y="487"/>
      <point x="773" y="514"/>
      <point x="706" y="555" type="curve"/>
      <point x="592" y="622"/>
      <point x="522" y="658"/>
      <point x="418" y="658" type="curve" smooth="yes"/>
      <point x="227" y="658"/>
      <point x="124" y="536"/>
      <point x="96" y="340" type="curve"/>
      <point x="287" y="275" type="line"/>
      <point x="300" y="379"/>
      <point x="330" y="427"/>
      <point x="392" y="437" type="curve" smooth="yes"/>
      <point x="448" y="447"/>
      <point x="498" y="415"/>
      <point x="523" y="400" type="curve" smooth="yes"/>
      <point x="689" y="306"/>
      <point x="780" y="267"/>
      <point x="896" y="267" type="curve" smooth="yes"/>
      <point x="1112" y="267"/>
      <point x="1173" y="397"/>
      <point x="1209" y="579" type="curve"/>
      <point x="1042" y="644" type="line"/>
      <point x="995" y="509"/>
      <point x="940" y="487"/>
    </contour>
  </outline>
</glyph>
<glyph name="middot" format="1">
  <advance width="658"/>
  <outline>
    <contour>
      <point x="301" y="690" type="move" name="_mid"/>
    </contour>
    <component base="period" xOffset="-64" yOffset="506"/>
  </outline>
</glyph>
